<svg width="25" height="24" viewBox="0 0 25 24" fill="none" xmlns="http://www.w3.org/2000/svg">
<path d="M7.15015 10.2C7.15015 11 7.35015 11.8 7.65015 12.5H3.55015C2.95015 12.5 2.35015 12.2 2.05015 11.7C1.75015 11.1 1.65015 10.5 1.85015 10C2.25015 9 3.05015 8.2 3.95015 7.7C3.55015 7.2 3.25015 6.5 3.25015 5.8C3.25015 4.3 4.55015 3 6.05015 3C7.65015 3 8.85015 4.3 8.85015 5.8C8.85015 5.9 8.85015 6.1 8.85015 6.2C7.85015 7.2 7.15015 8.6 7.15015 10.2Z" fill="#012AFE"/>
<path d="M23.4504 11.5999C23.1504 12.0999 22.5504 12.3999 21.9504 12.3999H17.8504C18.1504 11.6999 18.3504 10.8999 18.3504 10.0999C18.3504 8.4999 17.7504 7.0999 16.6504 6.0999C16.6504 5.9999 16.6504 5.7999 16.6504 5.6999C16.6504 4.0999 17.9504 2.8999 19.4504 2.8999C20.9504 2.8999 22.2504 4.1999 22.2504 5.6999C22.2504 6.3999 21.9504 7.0999 21.5504 7.5999C22.4504 8.1999 23.1504 8.9999 23.6504 9.9999C23.8504 10.4999 23.7504 11.0999 23.4504 11.5999Z" fill="#012AFE"/>
<path d="M15.1498 13.4001C16.1498 12.7001 16.8498 11.5001 16.8498 10.1001C16.8498 7.9001 15.0498 6.1001 12.8498 6.1001C10.6498 6.1001 8.74982 8.0001 8.74982 10.2001C8.74982 11.5001 9.44982 12.7001 10.4498 13.5001C8.64982 14.1001 7.24982 15.5001 6.44982 17.3001C6.14982 18.0001 6.24982 18.8001 6.64982 19.5001C7.14982 20.2001 7.84982 20.6001 8.64982 20.6001H16.8498C17.6498 20.6001 18.4498 20.2001 18.8498 19.5001C19.2498 18.8001 19.3498 18.0001 19.0498 17.3001C18.3498 15.4001 16.8498 14.1001 15.1498 13.4001Z" fill="#012AFE"/>
</svg>
