<svg width="23" height="17" viewBox="0 0 23 17" fill="none" xmlns="http://www.w3.org/2000/svg">
<path d="M14.6498 10.4C15.2498 9.7 15.6498 8.8 15.6498 7.9C15.6498 5.7 13.8498 4 11.7498 4C9.64982 4 7.84982 5.7 7.84982 7.8C7.84982 8.8 8.24982 9.7 8.84982 10.3C7.54982 11 6.54982 12 5.94982 13.4C5.64982 14.1 5.74982 15 6.14982 15.7C6.64982 16.4 7.44982 16.8 8.24982 16.8H15.1498C15.9498 16.8 16.7498 16.4 17.2498 15.7C17.7498 15 17.7498 14.2 17.4498 13.4C16.9498 12.1 15.9498 11 14.6498 10.4ZM9.84982 7.8C9.84982 6.8 10.7498 6 11.7498 6C12.7498 6 13.6498 6.8 13.6498 7.9C13.6498 9 12.7498 9.7 11.7498 9.7C10.7498 9.7 9.84982 8.9 9.84982 7.8ZM15.6498 14.6C15.5498 14.7 15.3498 14.8 15.2498 14.8H8.24982C8.04982 14.8 7.94982 14.7 7.84982 14.6C7.74982 14.6 7.74982 14.4 7.74982 14.2C8.44982 12.6 9.94982 11.6 11.7498 11.6C13.5498 11.6 15.0498 12.6 15.7498 14.2C15.7498 14.4 15.7498 14.6 15.6498 14.6Z" fill="#012AFE"/>
<path d="M14.6498 10.4C15.2498 9.7 15.6498 8.8 15.6498 7.9C15.6498 5.7 13.8498 4 11.7498 4C9.64982 4 7.84982 5.7 7.84982 7.8C7.84982 8.8 8.24982 9.7 8.84982 10.3C7.54982 11 6.54982 12 5.94982 13.4C5.64982 14.1 5.74982 15 6.14982 15.7C6.64982 16.4 7.44982 16.8 8.24982 16.8H15.1498C15.9498 16.8 16.7498 16.4 17.2498 15.7C17.7498 15 17.7498 14.2 17.4498 13.4C16.9498 12.1 15.9498 11 14.6498 10.4ZM9.84982 7.8C9.84982 6.8 10.7498 6 11.7498 6C12.7498 6 13.6498 6.8 13.6498 7.9C13.6498 9 12.7498 9.7 11.7498 9.7C10.7498 9.7 9.84982 8.9 9.84982 7.8ZM15.6498 14.6C15.5498 14.7 15.3498 14.8 15.2498 14.8H8.24982C8.04982 14.8 7.94982 14.7 7.84982 14.6C7.74982 14.6 7.74982 14.4 7.74982 14.2C8.44982 12.6 9.94982 11.6 11.7498 11.6C13.5498 11.6 15.0498 12.6 15.7498 14.2C15.7498 14.4 15.7498 14.6 15.6498 14.6Z" fill="white" fill-opacity="0.4"/>
<path d="M7.04969 9.6C7.04969 9.1 6.64969 8.6 6.04969 8.6H2.74969C3.14969 7.6 4.14969 7 5.24969 7C6.94969 7 8.24969 5.7 8.24969 4C8.24969 2.3 6.84969 1 5.24969 1C3.64969 1 2.24969 2.3 2.24969 4C2.24969 4.6 2.44969 5.2 2.84969 5.7C1.94969 6.2 1.24969 6.9 0.949694 7.8C0.649694 8.4 0.749694 9.1 1.04969 9.7C1.44969 10.3 2.04969 10.6 2.74969 10.6H5.94969C6.54969 10.6 7.04969 10.2 7.04969 9.6ZM4.24969 4C4.24969 3.4 4.74969 3 5.24969 3C5.74969 3 6.24969 3.5 6.24969 4C6.24969 4.6 5.74969 5 5.24969 5C4.74969 5 4.24969 4.5 4.24969 4Z" fill="#012AFE"/>
<path d="M7.04969 9.6C7.04969 9.1 6.64969 8.6 6.04969 8.6H2.74969C3.14969 7.6 4.14969 7 5.24969 7C6.94969 7 8.24969 5.7 8.24969 4C8.24969 2.3 6.84969 1 5.24969 1C3.64969 1 2.24969 2.3 2.24969 4C2.24969 4.6 2.44969 5.2 2.84969 5.7C1.94969 6.2 1.24969 6.9 0.949694 7.8C0.649694 8.4 0.749694 9.1 1.04969 9.7C1.44969 10.3 2.04969 10.6 2.74969 10.6H5.94969C6.54969 10.6 7.04969 10.2 7.04969 9.6ZM4.24969 4C4.24969 3.4 4.74969 3 5.24969 3C5.74969 3 6.24969 3.5 6.24969 4C6.24969 4.6 5.74969 5 5.24969 5C4.74969 5 4.24969 4.5 4.24969 4Z" fill="white" fill-opacity="0.4"/>
<path d="M22.55 7.7999C22.15 6.8999 21.45 6.0999 20.65 5.5999C20.95 5.0999 21.25 4.4999 21.25 3.8999C21.25 2.2999 19.85 0.899902 18.25 0.899902C16.65 0.899902 15.25 2.1999 15.25 3.8999C15.25 5.5999 16.65 6.8999 18.25 6.8999C19.35 6.8999 20.35 7.4999 20.65 8.5999H17.45C16.85 8.5999 16.45 8.9999 16.45 9.5999C16.45 10.0999 16.85 10.5999 17.45 10.5999H20.65C21.35 10.5999 21.95 10.2999 22.35 9.6999C22.75 9.0999 22.85 8.3999 22.55 7.7999ZM18.25 2.9999C18.85 2.9999 19.25 3.4999 19.25 3.9999C19.25 4.5999 18.75 4.9999 18.25 4.9999C17.75 4.9999 17.25 4.4999 17.25 3.9999C17.25 3.3999 17.65 2.9999 18.25 2.9999Z" fill="#012AFE"/>
<path d="M22.55 7.7999C22.15 6.8999 21.45 6.0999 20.65 5.5999C20.95 5.0999 21.25 4.4999 21.25 3.8999C21.25 2.2999 19.85 0.899902 18.25 0.899902C16.65 0.899902 15.25 2.1999 15.25 3.8999C15.25 5.5999 16.65 6.8999 18.25 6.8999C19.35 6.8999 20.35 7.4999 20.65 8.5999H17.45C16.85 8.5999 16.45 8.9999 16.45 9.5999C16.45 10.0999 16.85 10.5999 17.45 10.5999H20.65C21.35 10.5999 21.95 10.2999 22.35 9.6999C22.75 9.0999 22.85 8.3999 22.55 7.7999ZM18.25 2.9999C18.85 2.9999 19.25 3.4999 19.25 3.9999C19.25 4.5999 18.75 4.9999 18.25 4.9999C17.75 4.9999 17.25 4.4999 17.25 3.9999C17.25 3.3999 17.65 2.9999 18.25 2.9999Z" fill="white" fill-opacity="0.4"/>
</svg>
