<svg width="24" height="24" viewBox="0 0 24 24" fill="none" xmlns="http://www.w3.org/2000/svg">
<path fill-rule="evenodd" clip-rule="evenodd" d="M11.9 3C10.0523 3 8.5 4.55228 8.5 6.4V10.3C8.5 12.1477 10.0523 13.7 11.9 13.7C13.8864 13.7 15.376 12.2196 15.3008 10.34C15.3003 10.3267 15.3 10.3133 15.3 10.3V6.4C15.3 4.55228 13.7477 3 11.9 3ZM6.5 6.4C6.5 3.44772 8.94771 1 11.9 1C14.8523 1 17.3 3.44772 17.3 6.4V10.281C17.4128 13.3908 14.9069 15.7 11.9 15.7C8.94771 15.7 6.5 13.2523 6.5 10.3V6.4ZM4 9.29999C4.55228 9.29999 5 9.7477 5 10.3C5 14.1523 8.15168 17.2872 11.9773 17.2002L12 17.2C15.756 17.2 18.9 14.1395 18.9 10.3C18.9 9.7477 19.3477 9.29999 19.9 9.29999C20.4523 9.29999 20.9 9.7477 20.9 10.3C20.9 14.9498 17.3362 18.7025 12.9 19.1544V22C12.9 22.5523 12.4523 23 11.9 23C11.3477 23 10.9 22.5523 10.9 22V19.1539C6.45328 18.6864 3 14.8696 3 10.3C3 9.7477 3.44772 9.29999 4 9.29999Z" fill="#012AFE"/>
</svg>
