<svg width="25" height="24" viewBox="0 0 25 24" fill="none" xmlns="http://www.w3.org/2000/svg">
<path d="M21.25 13H3.25H2.25H1.25V17.2C1.25 18.8 2.55 20 4.05 20H20.45C21.95 20 23.25 18.7 23.25 17.2V13H22.25H21.25Z" fill="#012AFE"/>
<path d="M20.45 4H4.05C2.55 4 1.25 5.3 1.25 6.8V11H2.25H3.25H21.25H22.25H23.25V6.8C23.25 5.3 22.05 4 20.45 4Z" fill="#012AFE"/>
<path d="M11.3499 8.6001H6.1499C5.5499 8.6001 5.1499 8.2001 5.1499 7.6001C5.1499 7.0001 5.5499 6.6001 6.1499 6.6001H11.4499C12.0499 6.6001 12.4499 7.0001 12.4499 7.6001C12.4499 8.2001 11.9499 8.6001 11.3499 8.6001Z" fill="#DAFF01"/>
<path d="M11.3499 17.3999H6.1499C5.5499 17.3999 5.1499 16.9999 5.1499 16.3999C5.1499 15.7999 5.5499 15.3999 6.1499 15.3999H11.4499C12.0499 15.3999 12.4499 15.7999 12.4499 16.3999C12.4499 16.9999 11.9499 17.3999 11.3499 17.3999Z" fill="#DAFF01"/>
</svg>
