<svg width="23" height="16" viewBox="0 0 23 16" fill="none" xmlns="http://www.w3.org/2000/svg">
<path d="M19.45 0H3.05C1.45 0 0.25 1.2 0.25 2.8V8V13.2C0.25 14.8 1.45 16 3.05 16H19.45C20.95 16 22.25 14.8 22.25 13.2V8V2.8C22.25 1.2 21.05 0 19.45 0ZM2.25 2.8C2.25 2.4 2.65 2 3.05 2H19.45C19.85 2 20.25 2.4 20.25 2.8V7H2.25V2.8ZM20.25 13.2C20.25 13.6 19.85 14 19.45 14H3.05C2.65 14 2.25 13.6 2.25 13.2V9H20.25V13.2Z" fill="#012AFE"/>
<path d="M19.45 0H3.05C1.45 0 0.25 1.2 0.25 2.8V8V13.2C0.25 14.8 1.45 16 3.05 16H19.45C20.95 16 22.25 14.8 22.25 13.2V8V2.8C22.25 1.2 21.05 0 19.45 0ZM2.25 2.8C2.25 2.4 2.65 2 3.05 2H19.45C19.85 2 20.25 2.4 20.25 2.8V7H2.25V2.8ZM20.25 13.2C20.25 13.6 19.85 14 19.45 14H3.05C2.65 14 2.25 13.6 2.25 13.2V9H20.25V13.2Z" fill="white" fill-opacity="0.4"/>
<path d="M10.3496 3.5H4.84961C4.24961 3.5 3.84961 3.9 3.84961 4.5C3.84961 5.1 4.24961 5.5 4.84961 5.5H10.3496C10.9496 5.5 11.3496 5.1 11.3496 4.5C11.3496 3.9 10.8496 3.5 10.3496 3.5Z" fill="#012AFE"/>
<path d="M10.3496 3.5H4.84961C4.24961 3.5 3.84961 3.9 3.84961 4.5C3.84961 5.1 4.24961 5.5 4.84961 5.5H10.3496C10.9496 5.5 11.3496 5.1 11.3496 4.5C11.3496 3.9 10.8496 3.5 10.3496 3.5Z" fill="white" fill-opacity="0.4"/>
<path d="M4.84961 12.5H10.3496C10.9496 12.5 11.3496 12.1 11.3496 11.5C11.3496 10.9 10.9496 10.5 10.3496 10.5H4.84961C4.24961 10.5 3.84961 10.9 3.84961 11.5C3.84961 12.1 4.34961 12.5 4.84961 12.5Z" fill="#012AFE"/>
<path d="M4.84961 12.5H10.3496C10.9496 12.5 11.3496 12.1 11.3496 11.5C11.3496 10.9 10.9496 10.5 10.3496 10.5H4.84961C4.24961 10.5 3.84961 10.9 3.84961 11.5C3.84961 12.1 4.34961 12.5 4.84961 12.5Z" fill="white" fill-opacity="0.4"/>
</svg>
