<svg width="24" height="24" viewBox="0 0 24 24" fill="none" xmlns="http://www.w3.org/2000/svg">
<path d="M20.6996 17.1C19.6996 14.7 17.7996 12.9 15.4996 12C16.7996 11 17.5996 9.4 17.5996 7.7C17.5996 4.5 15.0996 2 11.9996 2C8.89957 2 6.39957 4.5 6.39957 7.6C6.39957 9.3 7.19957 10.9 8.49957 11.9C6.19957 12.8 4.29957 14.6 3.29957 17C2.89957 18 2.99957 19.2 3.59957 20.1C4.19957 21.1 5.29957 21.6 6.49957 21.6H17.5996C18.7996 21.6 19.7996 21 20.4996 20.1C21.0996 19.2 21.1996 18.1 20.6996 17.1Z" fill="#012AFE"/>
</svg>
