<svg width="65" height="50" viewBox="0 0 65 50" fill="none" xmlns="http://www.w3.org/2000/svg">
<rect x="12.5" y="5" width="40" height="40" rx="12" fill="#012AFE"/>
<path d="M42.5001 28.5C41.9001 28.5 41.5001 28.9 41.5001 29.5V31.3C41.5001 32.8 40.3001 33.9 38.9001 33.9H37.1001C36.5001 33.9 36.1001 34.3 36.1001 34.9C36.1001 35.5 36.5001 35.9 37.1001 35.9H38.9001C41.5001 35.9 43.5001 33.8 43.5001 31.3V29.5C43.5001 29 43.1001 28.5 42.5001 28.5Z" fill="#DAFF01"/>
<path d="M28 34.0001H26.1C24.7 34.0001 23.5 32.8001 23.5 31.4001V29.6001C23.5 29.0001 23.1 28.6001 22.5 28.6001C21.9 28.6001 21.5 29.0001 21.5 29.6001V31.4001C21.5 33.9001 23.6 36.0001 26.1 36.0001H27.9C28.5 36.0001 28.9 35.6001 28.9 35.0001C28.9 34.4001 28.5 34.0001 28 34.0001Z" fill="#DAFF01"/>
<path d="M22.5 21.5C23.1 21.5 23.5 21.1 23.5 20.5V18.6C23.5 17.2 24.7 16 26.1 16H27.9C28.5 16 28.9 15.6 28.9 15C28.9 14.4 28.5 14 28 14H26.1C23.6 14 21.5 16.1 21.5 18.6V20.4C21.5 21 21.9 21.5 22.5 21.5Z" fill="#DAFF01"/>
<path d="M38.9001 14H37.1001C36.5001 14 36.1001 14.4 36.1001 15C36.1001 15.6 36.5001 16 37.1001 16H38.9001C40.3001 16 41.5001 17.2 41.5001 18.6V20.4C41.5001 21 41.9001 21.4 42.5001 21.4C43.1001 21.4 43.5001 21 43.5001 20.4V18.6C43.5001 16.1 41.4001 14 38.9001 14Z" fill="#DAFF01"/>
<rect x="21.5" y="24.0234" width="22" height="2" rx="1" fill="#DAFF01"/>
</svg>
