<svg width="31" height="31" viewBox="0 0 31 31" fill="none" xmlns="http://www.w3.org/2000/svg">
<path d="M26.7618 21.7734L24.381 19.3896C23.8798 18.8877 23.1279 18.8877 22.6267 19.3896C22.1255 19.8914 22.1255 20.6442 22.6267 21.1461L25.0075 23.53C25.3834 23.9064 25.3834 24.5337 25.0075 24.9101C24.6316 25.2865 24.0051 25.2865 23.6291 24.9101L19.8699 21.1461C20.1206 20.8952 20.3712 20.7697 20.6218 20.5188C22.5014 18.6368 23.6291 16.002 23.6291 13.3672C23.6291 10.6069 22.6267 8.09755 20.6218 6.21555C16.612 2.20061 10.2213 2.20061 6.21147 6.21555C2.20165 10.2305 2.20165 16.6293 6.21147 20.6442C8.09108 22.5262 10.7225 23.6554 13.354 23.6554C14.8577 23.6554 16.3613 23.279 17.6144 22.6517L21.7495 26.7921C22.3761 27.4194 23.3785 27.7959 24.2557 27.7959C25.1328 27.7959 26.01 27.4194 26.7618 26.7921C28.1402 25.2865 28.1402 23.0281 26.7618 21.7734ZM7.96577 18.6368C4.9584 15.6256 4.9584 10.7324 7.96577 7.84662C9.46945 6.34102 11.3491 5.58822 13.354 5.58822C15.3589 5.58822 17.2385 6.34102 18.7422 7.84662C20.2459 9.35222 20.9977 11.2342 20.9977 13.2417C20.9977 15.2492 20.2459 17.2566 18.7422 18.6368C17.2385 20.0169 15.3589 20.8952 13.354 20.8952C11.3491 20.8952 9.34415 20.1424 7.96577 18.6368Z" fill="white"/>
</svg>
